<?xml version="1.0" standalone="no"?>
<!DOCTYPE svg PUBLIC "-//W3C//DTD SVG 20010904//EN"
 "http://www.w3.org/TR/2001/REC-SVG-20010904/DTD/svg10.dtd">
<svg version="1.0" xmlns="http://www.w3.org/2000/svg"
 width="500.000000pt" height="500.000000pt" viewBox="0 0 500.000000 500.000000"
 preserveAspectRatio="xMidYMid meet">
<metadata>
Created by potrace 1.14, written by Peter Selinger 2001-2017
</metadata>
<g transform="translate(0.000000,500.000000) scale(0.100000,-0.100000)"
fill="#000000" stroke="none">
<path d="M2848 4563 c-33 -21 -48 -53 -48 -102 0 -48 30 -87 76 -100 78 -22
144 31 144 115 0 52 -53 104 -106 104 -22 0 -51 -8 -66 -17z m112 -43 c30 -30
27 -83 -6 -109 -36 -29 -60 -26 -96 9 -24 25 -29 36 -23 58 3 15 14 35 22 45
22 23 78 22 103 -3z"/>
<path d="M3122 4278 c-43 -15 -99 -78 -108 -122 -14 -77 27 -158 95 -186 16
-6 35 -25 41 -41 15 -36 72 -86 119 -107 48 -20 136 -19 186 2 92 39 144 121
145 224 0 150 -115 254 -264 238 -81 -9 -104 -10 -146 -3 -19 3 -50 1 -68 -5z
m88 -36 c0 -4 -8 -12 -19 -19 -32 -20 -71 -111 -71 -166 0 -57 -13 -59 -47 -7
-58 84 5 198 110 200 15 0 27 -3 27 -8z m241 -55 c19 -12 45 -43 58 -70 34
-69 24 -127 -33 -183 -68 -68 -151 -72 -222 -10 l-39 34 26 10 c37 15 87 76
95 117 6 36 3 77 -11 108 -12 28 82 24 126 -6z m-157 -19 c16 -60 -3 -122 -46
-152 -32 -22 -45 -20 -52 9 -10 38 10 99 43 134 34 37 47 39 55 9z"/>
<path d="M2995 3817 c-95 -32 -167 -96 -209 -187 -34 -72 -36 -174 -5 -255 28
-74 109 -157 178 -182 46 -16 50 -20 61 -63 24 -94 89 -172 179 -213 67 -29
178 -29 249 2 66 30 144 113 166 177 20 61 20 157 0 218 -20 58 -99 146 -152
170 -36 16 -41 23 -47 62 -9 61 -59 157 -103 195 -83 73 -224 107 -317 76z
m200 -91 c56 -26 98 -70 126 -131 29 -63 26 -72 -30 -79 -28 -4 -65 -13 -83
-20 -88 -37 -170 -128 -184 -203 -8 -42 -28 -43 -82 -3 -132 95 -146 275 -30
390 72 73 187 91 283 46z m141 -277 c-17 -88 -91 -168 -177 -193 -60 -18 -95
-20 -104 -6 -11 18 36 107 80 150 45 44 124 79 179 80 27 0 28 -2 22 -31z
m172 -44 c17 -14 43 -51 58 -82 65 -133 12 -293 -119 -360 -141 -71 -306 -14
-373 131 -13 28 -24 56 -24 62 0 7 27 13 68 16 84 6 152 39 210 102 42 46 82
121 82 155 0 10 3 20 6 24 8 8 53 -15 92 -48z"/>
<path d="M2367 3523 c-3 -4 -33 -78 -67 -163 -117 -295 -248 -538 -444 -825
-335 -491 -400 -599 -469 -780 -58 -150 -70 -225 -64 -393 5 -166 23 -243 87
-379 120 -257 325 -433 605 -519 86 -27 100 -28 285 -28 179 0 203 3 293 27
106 28 257 95 333 148 78 53 198 174 254 255 103 149 172 333 201 533 18 127
6 377 -25 527 -56 268 -162 501 -360 794 l-71 105 -12 -144 c-29 -349 -83
-550 -289 -1067 -122 -307 -166 -444 -180 -557 -7 -65 4 -194 16 -181 4 5 25
50 45 99 51 125 125 261 251 460 169 269 252 438 295 605 l12 45 24 -70 c49
-143 67 -258 67 -430 1 -215 -24 -327 -112 -500 -38 -74 -63 -107 -142 -185
-108 -109 -194 -160 -345 -206 -81 -24 -106 -27 -245 -28 -175 -1 -235 11
-356 70 -192 94 -341 289 -389 508 -27 121 -17 273 25 391 64 181 111 259 472
790 116 172 192 296 272 446 l44 82 10 -39 c27 -103 35 -168 35 -274 0 -209
-36 -326 -200 -648 -174 -341 -225 -503 -227 -722 -1 -129 12 -194 56 -287 28
-62 120 -174 132 -162 4 4 1 40 -5 80 -14 92 -6 307 16 409 39 181 89 300 268
642 147 279 186 407 194 638 9 255 -34 428 -188 754 -83 176 -93 194 -102 179z"/>
<path d="M3466 2795 c-114 -41 -158 -175 -91 -277 61 -93 212 -104 287 -21 45
49 60 135 34 196 -17 43 -76 93 -123 106 -48 14 -59 13 -107 -4z m114 -82 c39
-27 49 -45 50 -88 0 -50 -22 -83 -67 -102 -69 -28 -143 25 -143 102 0 29 8 45
34 71 39 39 85 45 126 17z"/>
</g>
</svg>
